<svg width="55" height="55" viewBox="0 0 55 55" fill="none" xmlns="http://www.w3.org/2000/svg">
<path d="M49.5 12.2222H38.5V6.11111L33 0H22L16.5 6.11111V12.2222H5.5C2.475 12.2222 0 14.9722 0 18.3333V33.6111C0 35.9028 1.1 37.8278 2.75 38.8972V48.8889C2.75 52.2806 5.1975 55 8.25 55H46.75C49.8025 55 52.25 52.2806 52.25 48.8889V38.8667C53.8725 37.7972 55 35.8417 55 33.6111V18.3333C55 14.9722 52.525 12.2222 49.5 12.2222ZM22 6.11111H33V12.2222H22V6.11111ZM5.5 18.3333H49.5V33.6111H35.75V24.4444H19.25V33.6111H5.5V18.3333ZM30.25 36.6667H24.75V30.5556H30.25V36.6667ZM46.75 48.8889H8.25V39.7222H19.25V42.7778H35.75V39.7222H46.75V48.8889Z" fill="#00BA77"/>
</svg>
